<?xml version="1.0" standalone="no"?>
<!DOCTYPE svg PUBLIC "-//W3C//DTD SVG 20010904//EN"
 "http://www.w3.org/TR/2001/REC-SVG-20010904/DTD/svg10.dtd">
<svg version="1.0" xmlns="http://www.w3.org/2000/svg"
 width="700.000000pt" height="700.000000pt" viewBox="0 0 700.000000 700.000000"
 preserveAspectRatio="xMidYMid meet">
<metadata>
Created by potrace 1.11, written by Peter Selinger 2001-2013
</metadata>
<g transform="translate(0.000000,700.000000) scale(0.100000,-0.100000)"
fill="#000000" stroke="none">
<path d="M1934 6101 l-309 -309 -210 209 -209 208 -207 -207 -208 -207 22 -23
c12 -13 106 -108 209 -210 l186 -186 -309 -310 c-170 -170 -309 -312 -309
-315 0 -3 92 -98 205 -211 l205 -205 -205 -205 c-113 -113 -205 -208 -205
-213 0 -4 92 -100 205 -212 l205 -205 521 521 521 521 1250 -1250 1250 -1250
-521 -521 -521 -521 205 -205 c113 -113 208 -205 212 -205 5 0 100 92 213 205
l205 205 207 -207 207 -207 22 20 c11 10 153 150 313 311 l292 291 209 -209
208 -208 208 206 c198 197 207 208 191 226 -9 10 -101 102 -204 205 -103 103
-188 191 -188 196 0 5 133 141 294 303 162 162 300 301 307 310 11 12 -21 48
-194 221 l-207 207 205 205 c113 113 205 208 205 212 0 4 -92 100 -205 213
l-205 205 -521 -521 -521 -521 -1250 1250 -1250 1250 521 521 521 521 -205
205 c-113 113 -208 205 -212 205 -4 0 -100 -92 -213 -205 l-205 -205 -205 205
c-113 113 -208 205 -211 205 -3 0 -145 -139 -315 -309z"/>
</g>
</svg>
